<svg width="19" height="24" viewBox="0 0 19 24" fill="none" xmlns="http://www.w3.org/2000/svg">
<path fill-rule="evenodd" clip-rule="evenodd" d="M2.42211 10.5226V21.0453L1.22311 21.0578L0.0241169 21.0703L0.0120585 22.5352L0 24H7.99394H15.9879V22.5234V21.0469H14.7775H13.567V14.0391V7.03125H14.001H14.4349L14.4349 12.5742L14.435 18.1172L14.5651 18.3995C14.7997 18.9083 15.3027 19.269 16.0472 19.4623C16.3563 19.5425 16.5089 19.5547 16.9459 19.5339C17.6573 19.5002 18.0523 19.359 18.4559 18.994C18.7222 18.7532 18.8936 18.4268 18.9538 18.0455C18.9857 17.844 19.0012 15.6106 18.9999 11.3906L18.9981 5.03906L17.7009 3.67969L16.4038 2.32031L16.0131 2.71772C15.7983 2.9363 15.6225 3.12942 15.6225 3.14695C15.6225 3.16444 16.1264 3.70617 16.7424 4.35075L17.8622 5.52277L17.85 11.7517C17.8386 17.5435 17.8323 17.9893 17.7594 18.1034C17.6451 18.2824 17.4021 18.3481 16.8557 18.3477C16.2853 18.3472 15.9016 18.2468 15.7071 18.0472L15.5768 17.9135V11.8864V5.85938H14.5719H13.567V2.92969V0H7.99458H2.42211V10.5226ZM12.1511 5.27344V8.20312H8.15444H4.15779V5.27344V2.34375H8.15444H12.1511V5.27344Z" fill="white"/>
</svg>
