<svg width="27" height="21" viewBox="0 0 27 21" fill="none" xmlns="http://www.w3.org/2000/svg">
<path d="M9.12253 0.0293096C9.03329 0.0568949 8.89461 0.113666 8.81424 0.155414C8.67062 0.230103 1.52611 5.98121 0.670586 6.7108C0.174244 7.13412 0.00267026 7.43393 0.000642046 7.88151C0.000219331 7.97384 -0.0024324 8.05061 0.00736573 8.12575C0.0651474 8.56888 0.5559 8.95557 4.49009 12.1442C6.81335 14.0271 8.81304 15.6085 8.93378 15.6583C9.07645 15.7172 9.29049 15.7405 9.54503 15.7247C9.99752 15.6968 10.3251 15.5129 10.584 15.1417C10.7401 14.9178 10.7429 14.8917 10.7741 13.3704L10.8058 11.8263L14.4241 11.7955L18.0423 11.7648L18.2904 11.5964C18.4268 11.5039 18.6097 11.3259 18.6968 11.201C18.8402 10.9955 18.8583 10.8977 18.887 10.1759L18.9187 9.37789L21.2163 11.2384C22.48 12.2617 23.5123 13.1174 23.5102 13.14C23.5063 13.1852 19.0374 16.8015 18.9448 16.8344C18.9122 16.8459 18.8864 16.5505 18.8856 16.157C18.884 15.3514 18.7958 15.0871 18.4227 14.7688C18.0552 14.4554 17.8818 14.4322 16.0617 14.4541L14.4089 14.474L14.145 14.6439C13.7649 14.8884 13.5584 15.2223 13.5195 15.6552C13.4753 16.1482 13.7166 16.6064 14.1611 16.8735C14.4569 17.051 14.5018 17.0589 15.3437 17.0814L16.2189 17.1047L16.2378 18.6321L16.2566 20.1594L16.4496 20.4262C16.8097 20.9241 17.5126 21.135 18.063 20.9104C18.2627 20.8289 26.4354 14.2624 26.6964 13.9738C26.8742 13.7771 26.9998 13.4194 26.9998 13.11C26.9998 13.0205 27.0018 12.9455 26.992 12.8722C26.9328 12.4293 26.4446 12.0438 22.5061 8.85457C20.1844 6.97452 18.186 5.39576 18.0653 5.34613C17.9232 5.28782 17.7076 5.26454 17.4541 5.28024C16.9969 5.30851 16.6305 5.51595 16.399 5.87758C16.2639 6.08847 16.255 6.17904 16.225 7.63928L16.1933 9.17864L12.5805 9.20942L8.96775 9.24021L8.72583 9.38633C8.59272 9.46668 8.40733 9.64469 8.31385 9.78182C8.15704 10.0117 8.14132 10.0932 8.1121 10.8291L8.08041 11.6271L5.78282 9.76655C4.51912 8.74324 3.48682 7.88755 3.48885 7.86501C3.49278 7.81975 7.9617 4.20349 8.0543 4.17061C8.087 4.15898 8.1121 4.46094 8.1121 4.86579C8.1121 5.65265 8.18442 5.88195 8.5341 6.20441C8.89493 6.53704 9.04781 6.56173 10.7489 6.56173C12.5343 6.56173 12.7087 6.53186 13.0913 6.16069C13.7148 5.55591 13.58 4.55102 12.8172 4.11667C12.5378 3.95763 12.462 3.94507 11.6493 3.92339L10.7802 3.90024L10.7613 2.37289L10.7424 0.8456L10.5495 0.578737C10.4433 0.432005 10.2437 0.251901 10.1058 0.178504C9.81853 0.025615 9.35971 -0.0440254 9.12253 0.0293096Z" fill="white"/>
<path d="M9.12253 0.0293096C9.03329 0.0568949 8.89461 0.113666 8.81424 0.155414C8.67062 0.230103 1.52611 5.98121 0.670586 6.7108C0.174244 7.13412 0.00267026 7.43393 0.000642046 7.88151C0.000219331 7.97384 -0.0024324 8.05061 0.00736573 8.12575C0.0651474 8.56888 0.5559 8.95557 4.49009 12.1442C6.81335 14.0271 8.81304 15.6085 8.93378 15.6583C9.07645 15.7172 9.29049 15.7405 9.54503 15.7247C9.99752 15.6968 10.3251 15.5129 10.584 15.1417C10.7401 14.9178 10.7429 14.8917 10.7741 13.3704L10.8058 11.8263L14.4241 11.7955L18.0423 11.7648L18.2904 11.5964C18.4268 11.5039 18.6097 11.3259 18.6968 11.201C18.8402 10.9955 18.8583 10.8977 18.887 10.1759L18.9187 9.37789L21.2163 11.2384C22.48 12.2617 23.5123 13.1174 23.5102 13.14C23.5063 13.1852 19.0374 16.8015 18.9448 16.8344C18.9122 16.8459 18.8864 16.5505 18.8856 16.157C18.884 15.3514 18.7958 15.0871 18.4227 14.7688C18.0552 14.4554 17.8818 14.4322 16.0617 14.4541L14.4089 14.474L14.145 14.6439C13.7649 14.8884 13.5584 15.2223 13.5195 15.6552C13.4753 16.1482 13.7166 16.6064 14.1611 16.8735C14.4569 17.051 14.5018 17.0589 15.3437 17.0814L16.2189 17.1047L16.2378 18.6321L16.2566 20.1594L16.4496 20.4262C16.8097 20.9241 17.5126 21.135 18.063 20.9104C18.2627 20.8289 26.4354 14.2624 26.6964 13.9738C26.8742 13.7771 26.9998 13.4194 26.9998 13.11C26.9998 13.0205 27.0018 12.9455 26.992 12.8722C26.9328 12.4293 26.4446 12.0438 22.5061 8.85457C20.1844 6.97452 18.186 5.39576 18.0653 5.34613C17.9232 5.28782 17.7076 5.26454 17.4541 5.28024C16.9969 5.30851 16.6305 5.51595 16.399 5.87758C16.2639 6.08847 16.255 6.17904 16.225 7.63928L16.1933 9.17864L12.5805 9.20942L8.96775 9.24021L8.72583 9.38633C8.59272 9.46668 8.40733 9.64469 8.31385 9.78182C8.15704 10.0117 8.14132 10.0932 8.1121 10.8291L8.08041 11.6271L5.78282 9.76655C4.51912 8.74324 3.48682 7.88755 3.48885 7.86501C3.49278 7.81975 7.9617 4.20349 8.0543 4.17061C8.087 4.15898 8.1121 4.46094 8.1121 4.86579C8.1121 5.65265 8.18442 5.88195 8.5341 6.20441C8.89493 6.53704 9.04781 6.56173 10.7489 6.56173C12.5343 6.56173 12.7087 6.53186 13.0913 6.16069C13.7148 5.55591 13.58 4.55102 12.8172 4.11667C12.5378 3.95763 12.462 3.94507 11.6493 3.92339L10.7802 3.90024L10.7613 2.37289L10.7424 0.8456L10.5495 0.578737C10.4433 0.432005 10.2437 0.251901 10.1058 0.178504C9.81853 0.025615 9.35971 -0.0440254 9.12253 0.0293096Z" stroke="white"/>
</svg>
