<svg width="18" height="23" viewBox="0 0 18 23" fill="none" xmlns="http://www.w3.org/2000/svg">
<path fill-rule="evenodd" clip-rule="evenodd" d="M8.073 0.0574834C6.92116 0.25045 5.89206 0.832003 5.08544 1.74577C4.20059 2.74819 3.74203 3.90572 3.67897 5.29609C3.59091 7.23798 4.48512 9.09434 6.02686 10.1703C6.78518 10.6995 7.51659 10.9682 8.40249 11.043C10.0445 11.1816 11.4447 10.6316 12.575 9.4039C13.4699 8.43206 13.9274 7.37463 14.0389 6.02125C14.1877 4.2134 13.5494 2.52969 12.2697 1.35499C11.4444 0.597323 10.6829 0.223121 9.63359 0.0595062C9.12948 -0.01911 8.53485 -0.0198741 8.073 0.0574834ZM4.2423 11.1436C2.33493 11.3583 1.01319 12.8168 0.396845 15.3872C-0.0141379 17.1011 -0.119836 19.1606 0.14538 20.2866C0.358463 21.1912 1.06115 22.1092 1.8751 22.5462C2.24483 22.7447 2.77303 22.9093 3.21345 22.9633C3.47441 22.9953 5.46644 23.0062 9.27507 22.9966L14.948 22.9823L15.3065 22.8774C16.6375 22.4881 17.5509 21.5378 17.8833 20.1967C18.0565 19.4981 18.0343 17.8357 17.8343 16.5222C17.3897 13.6021 16.2679 11.849 14.4936 11.301C14.0878 11.1757 13.362 11.0804 13.1469 11.1242C12.9411 11.1661 12.6533 11.33 12.0038 11.775C11.3119 12.2491 11.216 12.3031 10.6979 12.5099C10.0978 12.7495 9.60263 12.8505 9.02787 12.8506C8.43383 12.8506 7.97958 12.7639 7.38044 12.5361C6.81466 12.3211 6.79015 12.3073 5.90657 11.7093C5.44062 11.3939 5.0959 11.1919 4.95891 11.154C4.72478 11.0893 4.72482 11.0893 4.2423 11.1436Z" fill="white"/>
</svg>
