<svg preserveAspectRatio="xMidYMax slice" viewBox="0 0 55 54" fill="none" xmlns="http://www.w3.org/2000/svg">
  <path fill-rule="evenodd" clip-rule="evenodd"
    d="M24.2283 0.389366C20.4169 0.82489 15.5562 2.66137 12.214 4.92859C10.2703 6.24714 7.46868 8.92377 5.97987 10.8846C4.41288 12.9487 2.31901 17.198 1.57556 19.8234C-0.984526 28.8628 1.46836 38.7009 7.99293 45.5619C10.2995 47.9875 12.3514 49.4889 15.4749 51.0357C20.2466 53.3992 25.1725 54.3249 30.1358 53.7912C43.0387 52.4034 52.8694 42.5396 54.2235 29.6227C54.5534 26.4753 54.2402 22.9454 53.3531 19.8126C52.6126 17.1968 50.5168 12.9458 48.952 10.8846C44.503 5.0249 37.5456 1.12314 30.2044 0.37068C27.4882 0.0920689 26.8093 0.094225 24.2283 0.389366ZM30.9433 2.38588C36.5489 3.23489 41.2105 5.55481 45.0712 9.41631C53.3484 17.6956 54.823 30.3366 48.6706 40.2722C47.0761 42.8472 43.733 46.2926 41.2556 47.9135C38.4476 49.7509 32.9566 51.8988 32.0026 51.533C31.122 51.1955 31.8585 46.7054 33.2979 43.6373C35.0833 39.8311 36.7616 37.6657 42.1902 32.163C44.2376 30.0877 45.8091 28.3865 45.6825 28.3822C45.5561 28.3781 45.6256 28.243 45.8372 28.082C46.0487 27.9211 46.4734 27.3047 46.7809 26.7122C47.9243 24.5087 47.2977 22.0005 45.2369 20.5322C43.7687 19.4866 43.108 19.1938 39.6968 18.0794C35.2515 16.6269 34.6922 16.354 34.0564 15.3263C33.177 13.9052 32.0628 13.549 28.3983 13.5174C21.1699 13.4553 21.3394 13.4436 19.4319 14.139C16.6051 15.1694 14.9039 16.1181 13.4947 17.4496C11.0003 19.8061 10.4835 21.3015 9.83164 28.049C9.29924 33.5628 8.90089 35.8616 8.00876 38.5689C6.98233 41.6834 7.06554 41.6427 5.86116 39.6191C1.09592 31.6132 1.40121 21.231 6.63315 13.353C10.583 7.40614 16.727 3.49146 23.8444 2.38684C26.4819 1.97766 28.2461 1.97742 30.9433 2.38588ZM26.1263 16.6408C29.6157 18.4191 29.6404 23.3667 26.1692 25.1972C25.048 25.7885 23.3002 25.9368 22.2321 25.5312C21.3886 25.2109 19.9521 23.8923 19.5007 23.0242C18.4633 21.0279 19.3933 17.9946 21.4138 16.785C22.7124 16.0076 24.7605 15.9449 26.1263 16.6408ZM22.5544 18.0164C21.2334 18.6996 20.5658 19.8842 20.6986 21.3079C20.79 22.2873 20.9569 22.6263 21.6675 23.2769C22.1397 23.7091 22.8019 24.1319 23.1391 24.2165C24.8483 24.645 26.8767 23.349 27.1997 21.6218C27.4086 20.5054 26.717 18.7949 25.8188 18.2071C24.8823 17.5942 23.5237 17.5147 22.5544 18.0164ZM41.7511 24.8048C42.3955 25.1493 42.3751 26.3709 41.7192 26.7216C41.3336 26.9276 41.0937 26.9017 40.64 26.6047C39.9124 26.1284 39.891 25.4186 40.5896 24.9299C41.222 24.4874 41.1678 24.4932 41.7511 24.8048ZM45.0928 28.8719C43.9929 29.7367 40.4405 31.4467 38.3778 32.1045C35.9565 32.8766 32.5305 33.1541 30.7774 32.72C29.6025 32.4291 27.8256 31.4249 27.8256 31.0517C27.8256 30.9383 28.2842 31.0747 28.8449 31.3545C29.7452 31.8041 30.2697 31.8631 33.3415 31.8585C37.4928 31.8525 39.4481 31.3954 42.9696 29.6076C45.4429 28.352 45.999 28.1594 45.0928 28.8719Z"
    fill="white" />
</svg>