<svg width="54" height="54" viewBox="0 0 54 54" fill="none" xmlns="http://www.w3.org/2000/svg">
<path fill-rule="evenodd" clip-rule="evenodd" d="M25.3946 0.190162C23.0408 0.424149 22.2575 0.544778 20.7944 0.898857C13.427 2.68145 7.07851 7.55804 3.44241 14.228C1.73071 17.3679 0.712037 20.6483 0.293107 24.3702C0.146268 25.675 0.173322 28.7124 0.344665 30.1578C1.29766 38.1961 5.70075 45.2673 12.5006 49.6798C15.9261 51.9027 19.6944 53.2631 23.9826 53.8247C25.1308 53.9751 28.8651 53.9754 30.0858 53.8253C35.0736 53.2115 39.6005 51.371 43.5218 48.3623C45.6846 46.7028 46.1741 46.0416 46.0977 44.8825C46.0525 44.1945 45.9078 43.8466 45.4565 43.3401C44.802 42.6056 43.6132 42.3759 42.7019 42.8077C42.4514 42.9265 41.8366 43.3737 41.3356 43.8018C35.6625 48.6477 27.82 50.2809 20.7033 48.0983C17.1571 47.0106 14.1084 45.1691 11.4883 42.5317L10.6992 41.7375L16.4073 32.7021L22.1153 23.6668L22.1647 28.5734C22.2077 32.8284 22.2358 33.5742 22.376 34.1881C22.8707 36.3536 23.9027 37.5035 25.5587 37.7346C27.0701 37.9454 28.5153 37.1548 29.8906 35.3644C30.1232 35.0616 31.9121 32.262 33.8661 29.1429L37.4186 23.4718L37.4735 26.7707C37.5221 29.6971 37.5509 30.1752 37.7289 31.005C38.5028 34.6138 40.6751 36.9185 43.9308 37.5849C46.0791 38.0246 48.3086 37.4747 50.217 36.0344C51.3378 35.1884 52.1367 34.2089 52.7996 32.868C53.5696 31.3105 53.8435 30.1876 53.9401 28.1937C54.4575 17.5086 48.3686 7.4183 38.6028 2.77695C35.8908 1.488 33.3991 0.753097 30.4046 0.358898C29.3608 0.221486 26.163 0.113781 25.3946 0.190162ZM30.5457 5.32614C36.9338 6.39573 42.4729 10.1184 45.8329 15.6002C47.9591 19.069 49.0474 22.9259 49.0672 27.0628C49.0767 29.0448 48.9948 29.502 48.4241 30.6518C48.0316 31.4426 47.3696 32.1369 46.6568 32.5054C46.221 32.7307 46.0677 32.7605 45.3436 32.7607C44.6766 32.7608 44.4546 32.7245 44.1532 32.566C43.4667 32.2051 42.9399 31.4928 42.6058 30.4734C42.4643 30.0417 42.436 29.4392 42.3794 25.6716C42.3108 21.0951 42.2785 20.7461 41.8265 19.6905C41.1279 18.0593 39.9209 17.1743 38.3751 17.1596C37.5115 17.1515 36.9282 17.3422 36.0533 17.9188C35.2103 18.4742 34.2929 19.4385 33.481 20.6221C33.1336 21.1285 31.5615 23.5999 29.9874 26.1139L27.1253 30.6849L27.0749 24.5881C27.0262 18.6828 27.0184 18.4692 26.8264 17.789C26.446 16.441 25.7565 15.5932 24.7298 15.2113C23.2489 14.6604 21.6469 15.4249 20.3947 17.2796C20.1781 17.6005 17.2834 22.1645 13.962 27.4218C10.6406 32.6791 7.86035 37.0756 7.78356 37.1918C7.6441 37.4028 7.64373 37.4025 7.37392 36.8776C5.09618 32.447 4.48805 26.6812 5.76916 21.6625C6.83129 17.502 9.11423 13.6917 12.2774 10.8005C15.5364 7.82147 19.5017 5.95684 24.0737 5.25326C25.5951 5.01918 28.937 5.05679 30.5457 5.32614Z" fill="white"/>
</svg>
