<svg width="61" height="58" viewBox="0 0 61 58" fill="none" xmlns="http://www.w3.org/2000/svg">
<path fill-rule="evenodd" clip-rule="evenodd" d="M0.281996 0.80204C0.319371 0.862496 1.45622 2.00025 3.01774 3.53998C9.7762 10.2041 20.1455 20.4937 22.6887 23.0596C23.6277 24.0069 23.6839 24.083 23.6832 24.4075C23.6828 24.5893 23.6714 24.6348 23.5969 24.75C23.3641 25.1102 22.8474 25.3906 22.0299 25.6004C20.8839 25.8944 20.1777 25.8453 19.4074 25.4178C19.1837 25.2937 19.0215 25.1628 18.8053 24.9322C18.1544 24.2381 16.3737 22.0545 13.6702 18.6356C12.028 16.5589 9.75843 13.7219 9.69533 13.6671C9.68079 13.6544 9.66091 13.6505 9.6512 13.6583C9.6082 13.6932 9.84605 14.0431 14.2336 20.3993C15.9024 22.8168 16.718 24.0357 17.2347 24.8841C17.5124 25.3402 17.5644 25.4442 17.5752 25.5653C17.6003 25.8472 17.4333 26.1186 16.9658 26.5557C16.3653 27.117 16.1338 27.4103 15.8671 27.9483C15.5657 28.5563 15.38 29.2177 15.161 30.463C14.8935 31.9843 14.62 32.7374 13.9293 33.8546C13.3222 34.8366 12.5091 35.7937 10.8698 37.4559C9.41067 38.9355 9.22184 39.1555 8.76792 39.9054C8.22838 40.7966 8.0968 41.2771 8.06372 42.4771C8.03943 43.3571 8.11181 43.8438 8.38856 44.6618C8.75556 45.7466 9.11568 46.3672 10.0896 47.5937C10.629 48.2729 11.0389 48.8364 11.2649 49.2093C11.49 49.5809 11.5546 49.7244 11.5813 49.912C11.6138 50.1407 11.6844 50.1447 12.6635 49.9739C13.7282 49.7882 15.0459 49.4669 15.9985 49.1609C16.9476 48.856 18.1253 48.3523 18.7986 47.9632C19.781 47.3956 20.5756 46.687 20.8554 46.129C21.0178 45.8052 21.0613 45.5409 21.0611 44.8804C21.0609 44.1793 21.0353 44.0653 20.782 43.6369C20.436 43.052 19.834 42.574 18.4638 41.796C16.3536 40.5979 15.6272 39.8727 15.3393 38.6769C15.265 38.3683 15.2642 37.6973 15.3377 37.402C15.4672 36.8817 15.7606 36.2672 16.4508 35.0705C17.5901 33.0952 17.8117 32.4567 18.0075 30.5864C18.1392 29.3279 18.2533 28.9323 18.5971 28.5421C18.8438 28.2621 19.1985 28.0362 19.5688 27.9234C19.8122 27.8493 20.2208 27.7789 20.7922 27.7127C22.4777 27.5174 23.5475 27.1835 24.4464 26.5722C25.2924 25.9969 25.7126 25.4335 25.8403 24.7035C25.8652 24.5611 25.8949 24.2589 25.9063 24.0321L25.9271 23.6198L25.5194 23.2552C25.2951 23.0546 24.7428 22.5576 24.292 22.1506C19.9797 18.2572 4.23015 4.22994 1.25324 1.63117C0.241881 0.748267 0.256429 0.760674 0.281996 0.80204ZM23.5619 13.4708C23.5117 13.4767 23.4365 13.4878 23.3949 13.4953C23.2682 13.5182 23.3758 13.5451 23.8206 13.602C26.488 13.9431 28.3444 14.6306 30.3176 16.008C31.5734 16.8847 32.6695 17.896 34.6092 19.9676C37.2847 22.825 38.7149 23.9853 40.5036 24.7494C41.3903 25.1282 42.7106 25.5069 43.9101 25.7264C45.1364 25.9508 46.6453 26.093 49.0216 26.208C52.5743 26.3799 53.6861 26.5668 54.8501 27.1878C55.5641 27.5687 55.9887 27.9263 56.6427 28.6977C56.8741 28.9706 56.9653 29.0613 56.9649 29.0184C56.9641 28.9103 56.8488 28.2977 56.782 28.0458C56.6981 27.7298 56.4112 27.0234 56.2058 26.6273C55.6007 25.4605 54.6153 24.1755 53.5983 23.227C53.4331 23.0729 53.2552 22.9068 53.203 22.858C53.1177 22.7781 53.1064 22.774 53.0906 22.8175C53.0809 22.8441 53.0039 23.0949 52.9196 23.3749C52.6664 24.2155 52.3843 24.7916 51.9921 25.269C51.4286 25.9549 50.8536 26.1748 50.2486 25.9357C49.9747 25.8274 49.8033 25.6628 49.7068 25.4153C49.6647 25.3073 49.6303 25.1859 49.6303 25.1454C49.6303 25.0375 49.7279 24.8223 49.9028 24.5448C50.267 23.9667 50.4185 23.3144 50.3814 22.4836C50.3525 21.8348 50.1896 20.9546 50.0475 20.679C49.9928 20.5728 49.8045 20.4601 49.1586 20.1467C47.9294 19.5504 46.8846 19.1587 45.5856 18.8074C42.9318 18.0898 39.9482 17.846 37.0146 18.1069C36.7802 18.1278 36.2275 18.1893 35.7862 18.2436C35.3449 18.298 34.9803 18.3391 34.9758 18.3349C34.9713 18.3307 34.8275 18.1941 34.6562 18.0313C33.6115 17.0386 32.3608 16.068 31.2926 15.4212C29.1235 14.1078 26.9588 13.4972 24.3684 13.468C23.9751 13.4636 23.6121 13.4648 23.5619 13.4708ZM51.6651 14.3952C51.5837 14.4964 51.2834 15.0411 51.1869 15.2626C50.9819 15.7334 50.8438 16.3611 50.7869 17.0817C50.6911 18.2929 50.6539 18.4126 50.3845 18.3757C50.2053 18.3512 49.6637 18.199 49.0064 17.9884C47.9637 17.6544 46.0936 17.1944 45.9433 17.2349C45.9245 17.24 46.1266 17.3268 46.3924 17.4278C48.5256 18.2379 49.7857 18.8354 50.394 19.3253C51.0221 19.8312 51.2852 20.3634 51.3942 21.3489C51.4473 21.8281 51.4663 22.9768 51.4299 23.4949C51.3923 24.029 51.3632 24.1524 51.184 24.5354C51.1163 24.6804 51.0608 24.8108 51.0608 24.8253C51.0608 24.944 51.3027 24.6132 51.5205 24.1968C51.9105 23.4509 52.0469 22.8074 52.0953 21.4846C52.1102 21.0776 52.1378 20.7022 52.1567 20.6503C52.2025 20.5246 52.3851 20.3623 52.4808 20.3623C52.5214 20.3623 52.6123 20.3858 52.6827 20.4145C53.1989 20.6249 54.8463 21.6817 55.7936 22.41C56.2046 22.726 56.2113 22.722 55.8699 22.3642C55.4009 21.8728 54.3591 20.9313 53.3283 20.0672C51.8803 18.8533 51.6905 18.5845 51.4736 17.4393C51.2531 16.2753 51.2941 15.4733 51.6129 14.7137C51.7381 14.4157 51.7609 14.2761 51.6651 14.3952ZM23.2601 14.8677C23.1631 15.372 23.1477 16.2773 23.2268 16.8227C23.4992 18.7006 24.4496 20.6601 25.6974 21.916C26.6935 22.9187 28.0839 23.73 29.3143 24.0264C29.5323 24.079 29.6689 24.0945 29.9839 24.1025C30.4631 24.1146 30.6449 24.0765 30.7394 23.9442C30.833 23.8131 30.7747 23.6908 30.3958 23.2235C29.8027 22.4921 29.3243 21.7664 29.1518 21.3366C29.0373 21.0514 28.8209 20.3415 28.6306 19.6265C28.206 18.0314 27.8599 17.2323 27.3095 16.576C27.0693 16.2896 26.5903 15.9024 26.2309 15.7041C25.6049 15.3586 24.5066 14.9923 23.7021 14.8606C23.5413 14.8343 23.3795 14.8071 23.3427 14.8001C23.286 14.7893 23.2732 14.7998 23.2601 14.8677ZM39.3261 25.775C39.2869 25.9443 39.3329 27.3895 39.3859 27.6511C39.7895 29.6455 41.1766 31.0628 44.1041 32.4719C45.389 33.0904 46.9045 33.6693 49.326 34.4665C51.6355 35.2269 52.6479 35.5838 53.8487 36.0608C55.7477 36.8151 56.9791 37.4997 57.7535 38.2314C58.4019 38.8441 58.8128 39.4532 59.0372 40.1348C59.1323 40.4238 59.216 40.8573 59.217 41.0666C59.2178 41.2143 59.2749 41.3778 59.3258 41.3778C59.4495 41.3778 59.9943 40.4326 60.3432 39.6125C60.6097 38.9861 60.7687 37.9421 60.7692 36.8146C60.7695 36.0219 60.7069 35.6007 60.4811 34.8783C59.595 32.0424 57.0249 29.9654 53.0592 28.8804C51.6489 28.4945 50.29 28.265 47.2411 27.8977C43.37 27.4314 41.7589 27.0678 40.4733 26.3704C40.2952 26.2738 39.9851 26.089 39.7843 25.9597C39.3171 25.659 39.3499 25.6722 39.3261 25.775ZM27.3664 28.0828C26.6884 28.1654 26.0452 28.5343 25.5514 29.1236C25.396 29.309 25.2116 29.6258 25.145 29.8217C25.0683 30.0472 25.0498 30.63 25.1103 30.9115C25.1854 31.2604 25.2569 31.3892 25.4759 31.5693C25.6918 31.7469 25.9073 31.8405 26.2355 31.8994C26.5054 31.9477 27.515 31.9534 27.899 31.9086C29.0764 31.7714 29.9958 31.4529 30.5162 31.0021C31.0088 30.5753 31.0745 30.0738 30.716 29.4764C30.4344 29.0071 29.9272 28.5809 29.3501 28.3286C28.878 28.1222 27.968 28.0095 27.3664 28.0828ZM28.4405 28.4177C28.8729 28.4894 29.2638 28.6933 29.4425 28.9405C29.5502 29.0893 29.5549 29.3028 29.4544 29.4711C29.2608 29.7952 28.4973 30.0841 27.93 30.0479C27.3817 30.0129 26.8206 29.7525 26.6199 29.4398C26.5568 29.3416 26.5738 29.1127 26.654 28.9777C26.9155 28.5381 27.6945 28.2939 28.4405 28.4177ZM43.501 33.9841C44.0159 35.2194 44.1356 36.4876 43.8327 37.498C43.3224 39.2005 41.7419 40.4728 39.3052 41.1426C38.7189 41.3038 37.678 41.4841 36.2994 41.6632C35.1136 41.8172 33.4833 42.0841 32.6775 42.2562C31.7322 42.458 31.1015 42.654 30.1817 43.0319C29.2415 43.4182 28.5713 43.7562 28.6382 43.8104C28.6497 43.8197 28.9434 43.7533 29.291 43.663C31.0252 43.2123 32.261 43.054 35.295 42.8942C36.3913 42.8364 37.8291 42.7379 38.2016 42.6951C40.3054 42.453 41.9278 41.8824 43.1162 40.9667C43.9203 40.347 44.5071 39.6146 44.8508 38.8015C45.0256 38.3881 45.0631 38.1777 45.0842 37.4934C45.1052 36.8065 45.0655 36.2693 44.974 36.0053C44.8013 35.507 44.4211 34.8066 44.1211 34.4343C43.9831 34.263 43.401 33.6573 43.3743 33.6573C43.3691 33.6573 43.4261 33.8044 43.501 33.9841ZM46.6187 35.0854C46.4713 35.3196 46.3313 35.8883 46.2775 36.4716C46.1885 37.4354 46.4322 38.5384 46.9718 39.6142C47.3324 40.3332 47.8221 41.0194 48.9261 42.3521C50.9805 44.8323 51.1688 45.0669 51.7769 45.904C52.1509 46.4189 52.6356 47.1999 52.8178 47.5813C53.1091 48.1912 53.305 48.8397 53.3769 49.4323C53.424 49.8211 53.3957 50.4825 53.3161 50.8496C53.1983 51.3934 52.9333 52.0583 52.6559 52.5063C52.5103 52.7413 52.3322 53.0968 52.352 53.1129C52.4017 53.1532 53.4032 52.7198 53.9704 52.4126C54.9504 51.8817 55.9146 51.1095 56.619 50.2912C57.3351 49.4593 57.936 48.3884 58.2849 47.3223C58.4528 46.8092 58.5416 46.1405 58.5684 45.1887C58.5956 44.2192 58.54 43.8008 58.2719 42.9591C57.6514 41.0108 56.2587 39.5857 53.5566 38.1336C52.6448 37.6436 52.1172 37.3951 49.8129 36.3703C48.5256 35.7978 47.8018 35.4643 47.3628 35.2413C46.7899 34.9502 46.7138 34.9343 46.6187 35.0854ZM11.5362 41.6979C12.0679 41.7684 12.5243 42.1132 12.6648 42.5503C12.7648 42.8615 12.7048 43.1946 12.4977 43.4778C12.1207 43.9934 11.4263 44.1462 10.9628 43.8156C10.7796 43.6849 10.7331 43.6069 10.7331 43.4297C10.7331 43.3014 10.7533 43.2519 10.9005 43.0192C10.9926 42.8737 11.0679 42.7232 11.0679 42.6848C11.0679 42.5962 10.9445 42.476 10.7863 42.4106C10.5915 42.3301 10.52 42.2521 10.5202 42.1203C10.5204 41.9163 10.6949 41.7723 11.0194 41.7085C11.2147 41.6701 11.3118 41.6681 11.5362 41.6979ZM30.3119 45.3257C28.8492 45.3931 26.9641 45.8097 25.1902 46.4575C23.3113 47.1437 21.3289 48.1887 20.0486 49.1679L19.6397 49.4806L19.7594 49.4993C19.8253 49.5097 20.2969 49.5734 20.8074 49.641C22.3931 49.851 23.2828 50.0443 24.0686 50.3495C25.0725 50.7396 25.7219 51.1579 27.2788 52.4174C28.8347 53.6761 29.2088 53.8987 30.1968 54.1534C30.7212 54.2886 31.0291 54.3304 31.5057 54.3311C32.3618 54.3324 33.1129 54.1149 33.7349 53.6857C34.1713 53.3845 34.5575 52.8979 34.6878 52.4849C34.8143 52.0841 34.8142 51.3907 34.6875 50.9894C34.5325 50.4981 34.0691 50.0668 33.4231 49.8125C32.6633 49.5133 31.8593 49.4875 31.191 49.7409C30.5003 50.0028 30.0784 50.6517 30.2536 51.1826C30.3804 51.5667 30.77 51.8642 31.1958 51.902C31.3187 51.9129 31.3144 51.9095 31.0676 51.8023C30.605 51.6014 30.452 51.4253 30.4308 51.0692C30.3906 50.3944 31.0065 49.9262 31.9318 49.9281C32.2842 49.9288 32.5322 49.9741 32.8507 50.096C33.4462 50.324 33.787 50.623 33.914 51.0289C33.9953 51.2889 33.9885 51.7124 33.8988 51.9708C33.5944 52.8487 32.5458 53.4083 31.469 53.2677C30.7029 53.1676 29.8237 52.7745 29.391 52.3385C29.029 51.9739 28.8495 51.5926 28.8207 51.1274C28.7556 50.0724 29.5262 49.1945 30.8176 48.8525C31.6239 48.639 32.6284 48.6566 33.5297 48.9001C33.8435 48.9848 34.3767 49.201 34.6886 49.3699C36.064 50.1149 36.6964 50.8315 37.8664 52.9709C38.3112 53.7841 38.7921 54.5897 39.0206 54.9044C39.6573 55.7812 40.6303 56.5437 41.5756 56.9066C42.2596 57.1691 42.7553 57.251 43.6496 57.249C44.6515 57.2468 45.2351 57.1337 46.1109 56.7721C46.7409 56.512 47.4583 56.14 47.6351 55.9816C47.6907 55.9318 47.6906 55.9308 47.628 55.9308C47.5928 55.9308 47.3476 55.9923 47.083 56.0674C46.516 56.2284 46.0696 56.3276 45.5671 56.4043C45.0625 56.4813 43.8909 56.4868 43.467 56.4142C42.9096 56.3187 42.4129 56.1462 42.0574 55.9245C41.4425 55.5412 40.8888 54.7794 40.6048 53.926C40.5362 53.7198 40.4039 53.1104 40.1351 51.7622C39.7596 49.8786 39.3179 48.8499 38.4587 47.8581C38.2166 47.5786 37.6887 47.132 37.3037 46.8809C36.096 46.0932 34.4488 45.5417 32.8449 45.3881C32.0331 45.3104 31.1279 45.2881 30.3119 45.3257Z" fill="white"/>
</svg>
